<svg width="712" height="210" viewBox="0 0 712 210" fill="none" xmlns="http://www.w3.org/2000/svg">
<path d="M46.3002 12.218C74.0699 11.9879 102.141 11.2132 129.929 10.6637L287.99 7.61242L711.687 0L693.641 77.2047C690.755 89.5138 686.99 103.897 684.715 116.105C679.74 115.463 673.154 114.875 668.192 114.637C645.918 114.108 623.364 112.824 600.923 112.27C574.717 111.864 548.511 111.815 522.304 112.124C476.473 112.907 430.69 115.388 385.044 119.561C292.686 127.83 192.723 143.779 103.515 170.389C80.3093 177.254 57.4218 185.15 34.9198 194.053C25.8305 197.659 8.29343 205.068 0 210L8.14034 174.366C9.38224 168.997 10.8991 161.458 12.3715 156.367C15.9512 137.68 21.5976 116.283 26.0461 97.5508C32.6405 69.0697 39.392 40.6247 46.3002 12.218Z" fill="#FED34F"/>
<path d="M12.3715 156.367C44.4894 149.104 73.2182 142.686 105.935 136.97C255.946 112.277 408.039 102.564 559.975 107.973C585.873 108.721 611.75 110.081 637.586 112.053C644.946 112.59 661.364 113.367 668.192 114.637C645.918 114.108 623.364 112.824 600.923 112.27C574.717 111.864 548.511 111.815 522.304 112.124C476.473 112.907 430.69 115.388 385.044 119.561C292.686 127.83 192.723 143.779 103.515 170.389C80.3093 177.254 57.4218 185.15 34.9198 194.053C25.8305 197.659 8.29343 205.068 0 210L8.14034 174.366C9.38224 168.997 10.8991 161.458 12.3715 156.367Z" fill="#003561"/>
<path d="M591.115 23.8639C591.313 23.8401 591.515 23.8208 591.713 23.8067C626.014 21.2177 630.783 54.7293 612.856 76.6762C605.456 85.7347 594.502 89.1296 583.148 89.8875C575.361 90.7062 565.168 88.6707 559.08 83.5817C545.68 72.3821 551.429 49.2699 561.266 37.5728C568.859 28.5398 579.624 24.7468 591.115 23.8639Z" fill="#003561"/>
<path d="M590.801 38.3683C607.848 37.8166 603.506 59.7455 596.92 68.4793C593.427 73.1147 589.486 74.713 583.956 75.4336C564.309 77.4335 571.053 46.5808 582.205 40.8644C586.015 38.9138 586.538 38.7299 590.801 38.3683Z" fill="#FED34F"/>
<path d="M498.06 24.3742C503.937 24.544 511.689 24.5247 517.518 24.4037C534.155 24.0584 559.741 23.6743 550.846 48.7556C548.105 56.482 542.901 60.0471 535.664 63.3167L546.601 87.9814L526.611 88.083L525.493 87.8015C524.028 85.5948 517.9 69.1857 516.708 66.0715L508.209 66.1216C506.995 73.2009 504.896 80.5133 503.625 87.8956L484.088 87.9682C488.034 67.1167 493.687 45.3009 498.06 24.3742Z" fill="#003561"/>
<path d="M514.375 38.3372C519.681 38.2686 533.697 36.4095 532.425 44.9589C531.968 48.0445 530.243 49.6661 527.868 51.4509C522.681 53.4684 516.878 52.838 511.357 52.7478C512.413 47.9988 513.377 43.1082 514.375 38.3372Z" fill="#FED34F"/>
<path d="M100.028 35.8154C130.448 31.9793 134.508 53.9099 119.498 75.1736C111.842 86.0194 96.7467 87.6542 84.4056 88.8442L80.305 108.291L79.5946 112.39L59.8055 115.005C64.9376 89.6404 70.7939 62.6485 76.5318 37.4145C83.8759 37.2711 92.688 36.4009 100.028 35.8154Z" fill="#003561"/>
<path d="M100.263 52.0217C111.739 50.5479 110.842 67.9685 96.6705 71.523C93.7085 71.8358 90.7865 71.9933 87.8153 72.1728C89.143 65.5634 90.8305 59.0802 91.9545 52.4145C94.719 52.3908 97.502 52.188 100.263 52.0217Z" fill="#FED34F"/>
<path d="M179.043 31.3483C180.835 31.1855 184.179 31.1736 186.072 31.1112C184.726 36.04 183.73 41.5008 182.709 46.5384C172.642 47.0346 162.579 47.6197 152.522 48.2923C151.744 52.2662 150.767 56.2976 149.855 60.2508C158.854 59.4405 168.204 58.9359 177.24 58.3323C176.581 62.7473 175.108 69.0721 174.192 73.5672C165.63 73.8497 155.46 74.9007 146.817 75.5456C145.776 80.1058 144.808 84.6823 143.912 89.2729C154.055 88.1573 165.188 87.4156 175.424 86.5397L174.44 91.144L171.991 102.346C154.753 103.966 137.534 105.778 120.337 107.781C125.89 83.0674 131.267 58.3147 136.47 33.5255C149.796 33.3209 165.545 32.0763 179.043 31.3483Z" fill="#003561"/>
<path d="M337.435 25.6878C338.218 25.6385 339.001 25.598 339.785 25.5659C356.37 24.8924 382.611 23.2093 376.219 48.5633C370.958 69.4399 351.227 70.5991 333.82 70.7803L332.975 75.3899C331.723 79.6804 330.444 86.7254 329.384 91.3256C323.786 91.4576 315.046 91.6389 309.701 92.4083L324.084 25.9121C328.535 25.8875 332.986 25.8127 337.435 25.6878Z" fill="#003561"/>
<path d="M347.359 39.7221C361.763 39.1102 359.664 53.1138 347.813 56.3992C344.562 56.6596 340.158 56.6218 336.816 56.6882C338.064 51.1285 339.424 45.4213 340.444 39.8277L347.359 39.7221Z" fill="#FED34F"/>
<path d="M401.003 24.594L422.189 24.5557C423.777 33.0524 425.845 41.2948 427.636 49.7334L435.435 88.3235C428.476 88.3547 421.886 88.4128 414.939 88.7397L413.026 76.4372C406.462 76.4618 399.903 76.5925 393.344 76.8287L386.943 76.8701C385.227 80.268 381.549 86.1617 379.517 89.6256C372.782 89.7163 365.875 89.9873 359.126 90.1747C372.927 68.9035 387.669 46.1071 401.003 24.594Z" fill="#003561"/>
<path d="M407.268 42.4303C408.117 44.6123 410.286 60.2441 410.73 63.2739L398.157 63.3214C396.82 63.3988 396.618 63.4886 395.434 62.9703C395.958 61.3263 405.553 45.3545 407.268 42.4303Z" fill="#FED34F"/>
<path d="M216.827 28.2557L217.234 28.2117C225.487 27.3657 235.968 29.29 242.531 34.657C239.802 39.7131 236.28 43.5615 232.587 47.9106C226.006 43.9944 213.952 40.2476 206.829 46.8873C206.297 47.3831 205.316 49.9215 205.685 50.4775C210.453 57.6443 224.66 54.7422 231.417 60.8303C233.897 62.7153 236.337 65.8093 236.459 69.2376C237.253 91.4441 218.906 98.9395 201.727 101.03C200.24 101.088 198.752 101.13 197.264 101.158C189.184 101.293 181.312 100.037 175.267 94.1786C179.195 88.9761 182.385 84.8527 187.05 80.3136C192.471 84.6697 197.129 85.8667 204.14 85.6089C207.947 85.4686 216.691 83.2219 215.871 77.8667C215.079 72.6919 202.422 72.1807 198.495 70.6718C195.64 69.575 192.7 68.8316 190.256 66.6861C181.844 60.2984 185.958 46.6762 191.568 39.6493C197.631 32.0566 207.37 29.1373 216.827 28.2557Z" fill="#003561"/>
<path d="M296.885 26.5191L301.275 26.3928C300.2 31.1246 298.822 36.5766 298.163 41.3225C291.959 41.696 285.717 41.7611 279.502 41.8807C276.333 59.0258 271.92 77.3702 268.272 94.5514L248.28 95.9631C248.939 92.7213 249.812 89.2772 250.572 86.0384L260.049 42.995C254.301 42.9678 247.639 43.3624 241.82 43.578C242.81 38.5026 243.877 33.443 245.02 28.4002C262.254 27.9809 279.611 27.0606 296.885 26.5191Z" fill="#003561"/>
<path d="M437.386 24.4988L493.911 24.4125C492.697 28.9886 491.804 34.0847 490.885 38.7619L472.39 38.8552C470.521 49.2405 467.305 62.0286 465.035 72.6277C463.953 77.4783 462.514 83.236 461.854 88.0879L442.321 88.2617C445.748 71.7426 449.263 55.2428 452.871 38.7633L434.271 38.9357L437.386 24.4988Z" fill="#003561"/>
<path d="M634.716 25.8061L654.512 25.9552C650.482 42.2231 646.774 59.5688 643.026 75.945C652.537 76.0264 662.25 76.3814 671.792 76.5582L668.242 91.3924L620.449 89.6948C625.108 68.8226 629.634 46.4679 634.716 25.8061Z" fill="#003561"/>
<path d="M53.7632 201.709C85.6391 188.768 127.165 176.664 160.375 168.098C286.113 135.669 414.827 121.946 544.411 119.55C565.747 119.154 587.088 119.204 608.419 119.699C615.872 119.816 634.067 119.882 640.736 120.837C639.588 120.885 638.141 120.829 637.138 121.271L638.62 121.978C623.32 122.762 605.441 122.485 589.771 122.876C563.794 123.726 537.825 124.901 511.878 126.401C394.942 133.074 278.746 149.253 164.438 174.78C129.545 182.685 87.3895 192.967 53.4631 203.782L53.7632 201.709Z" fill="#003561"/>
<path d="M640.742 120.837C647.169 120.957 659.06 121.052 665.162 122.078L665.232 122.271C656.363 122.311 647.49 122.213 638.625 121.977L637.143 121.271C638.146 120.828 639.593 120.884 640.742 120.837Z" fill="#052A68"/>
<path d="M53.4678 203.783C50.4438 204.676 37.3002 209.088 35.5955 209.351C37.2461 208.102 51.1195 202.761 53.7679 201.709L53.4678 203.783Z" fill="#052A68" fill-opacity="0.921569"/>
</svg>
